<svg width="49" height="49" viewBox="0 0 49 49" fill="none" xmlns="http://www.w3.org/2000/svg">
<path d="M24.4866 4.08325C34.0062 4.08325 41.8541 11.6739 41.8541 21.0653C41.8541 25.7978 40.133 30.1913 37.3002 33.9152C34.175 38.0229 30.3231 41.6019 25.9874 44.4111C24.9951 45.0603 24.0996 45.1093 23.0105 44.4111C18.6501 41.6019 14.7982 38.0229 11.6997 33.9152C8.86486 30.1913 7.14581 25.7978 7.14581 21.0653C7.14581 11.6739 14.9937 4.08325 24.4866 4.08325ZM24.4866 15.8776C21.3388 15.8776 18.7715 18.4725 18.7715 21.5941C18.7715 24.7402 21.3388 27.2147 24.4866 27.2147C27.6365 27.2147 30.2284 24.7402 30.2284 21.5941C30.2284 18.4725 27.6365 15.8776 24.4866 15.8776Z" fill="white"/>
</svg>
